<svg preserveAspectRatio="none" width="100%" height="100%" overflow="visible" style="display: block;" viewBox="0 0 53.0027 50.0044" fill="none" xmlns="http://www.w3.org/2000/svg">
<g id="send-horizontal">
<path d="M0 25.0022C0 11.1939 11.1939 0 25.0022 0H28.0005C41.8088 0 53.0027 11.1939 53.0027 25.0022V25.0022C53.0027 38.8105 41.8088 50.0044 28.0005 50.0044H25.0022C11.1939 50.0044 0 38.8105 0 25.0022V25.0022Z" fill="var(--fill-0, #EA580C)"/>
<path id="Vector" d="M37.0027 25.0025C37.0027 25.0972 36.9758 25.19 36.9251 25.27C36.8744 25.35 36.8021 25.414 36.7165 25.4545L18.7165 33.9545C18.6266 33.9981 18.5256 34.0136 18.4268 33.9991C18.3279 33.9845 18.2357 33.9406 18.1622 33.873C18.0886 33.8053 18.0371 33.7172 18.0143 33.6199C17.9916 33.5226 17.9986 33.4207 18.0345 33.3275L20.8765 25.7005C21.0441 25.2502 21.0441 24.7547 20.8765 24.3045L18.0335 16.6775C17.9974 16.5841 17.9903 16.4821 18.0131 16.3846C18.0359 16.2872 18.0875 16.1988 18.1612 16.1311C18.2349 16.0635 18.3274 16.0196 18.4264 16.0052C18.5254 15.9908 18.6265 16.0066 18.7165 16.0505L36.7165 24.5505C36.8021 24.591 36.8744 24.655 36.9251 24.735C36.9758 24.815 37.0027 24.9078 37.0027 25.0025ZM37.0027 25.0025H21.0025" stroke="var(--stroke-0, white)" stroke-width="2" stroke-linecap="round" stroke-linejoin="round"/>
</g>
</svg>
